<?xml version="1.0" standalone="no"?>
<!DOCTYPE svg PUBLIC "-//W3C//DTD SVG 20010904//EN"
 "http://www.w3.org/TR/2001/REC-SVG-20010904/DTD/svg10.dtd">
<svg version="1.0" xmlns="http://www.w3.org/2000/svg"
 width="289.000000pt" height="77.000000pt" viewBox="0 0 289.000000 77.000000"
 preserveAspectRatio="xMidYMid meet">

<g transform="translate(0.000000,77.000000) scale(0.100000,-0.100000)"
fill="#000000" stroke="none">
<path d="M2843 613 c-9 -3 -13 -28 -13 -73 l0 -68 -57 5 c-72 6 -118 -17 -150
-73 -41 -71 -23 -202 32 -238 31 -20 115 -21 141 -1 25 19 34 19 34 0 0 -10
10 -15 30 -15 l30 0 0 235 c0 217 -1 235 -17 234 -10 0 -24 -3 -30 -6z m-26
-184 c9 -8 13 -38 13 -101 0 -81 -2 -91 -25 -113 -65 -66 -158 18 -141 127 8
46 26 77 58 95 25 14 73 10 95 -8z"/>
<path d="M7 603 c-4 -3 -7 -107 -7 -230 l0 -223 135 0 c133 0 135 0 135 23 0
22 -2 22 -100 19 l-100 -4 0 211 0 211 -28 0 c-16 0 -32 -3 -35 -7z"/>
<path d="M1183 603 c-30 -6 -63 -49 -63 -82 0 -15 13 -47 28 -71 l28 -45 -30
-20 c-67 -45 -92 -115 -61 -175 24 -46 52 -60 122 -60 55 0 66 4 96 30 l34 29
28 -29 c22 -23 38 -30 68 -30 l39 0 -44 53 c-61 72 -60 68 -27 118 34 51 35
59 11 59 -11 0 -28 -16 -41 -41 -13 -22 -24 -39 -26 -37 -2 2 -21 25 -43 52
l-40 48 39 35 c34 30 39 41 39 77 0 56 -32 87 -92 91 -24 2 -53 1 -65 -2z m77
-43 c11 -11 20 -31 20 -45 0 -28 -26 -85 -38 -85 -10 0 -62 81 -62 97 0 15 36
53 50 53 6 0 19 -9 30 -20z m37 -298 c14 -20 14 -24 -2 -42 -10 -11 -33 -23
-52 -26 -95 -18 -144 89 -75 163 l25 27 44 -49 c25 -28 52 -60 60 -73z"/>
<path d="M1654 601 c-209 -53 -238 -354 -42 -435 49 -21 169 -21 208 -1 30 15
30 17 30 100 l0 85 -65 0 c-61 0 -65 -1 -65 -23 0 -20 4 -23 30 -19 l30 4 0
-66 0 -66 -45 0 c-79 0 -145 45 -171 117 -66 186 103 351 249 243 24 -18 31
-20 38 -9 5 8 9 20 9 27 0 31 -140 60 -206 43z"/>
<path d="M385 476 c-54 -26 -58 -31 -45 -55 l11 -22 30 26 c54 45 113 26 121
-39 3 -27 0 -29 -65 -49 -118 -35 -161 -104 -102 -162 28 -29 94 -34 135 -10
32 18 40 18 40 0 0 -10 10 -15 30 -15 l30 0 0 108 c-1 180 -20 222 -107 229
-29 2 -60 -2 -78 -11z m125 -199 c0 -50 -19 -73 -67 -83 -24 -5 -36 -1 -52 15
-12 12 -21 27 -21 34 0 29 73 74 123 76 14 1 17 -7 17 -42z"/>
<path d="M640 323 c52 -150 60 -168 80 -168 19 0 28 14 58 97 20 53 39 95 42
93 3 -2 21 -47 40 -99 28 -80 37 -96 55 -96 18 0 28 22 74 158 30 86 56 163
59 170 2 7 -4 12 -15 12 -15 0 -25 -20 -52 -102 -55 -169 -50 -168 -101 -23
l-45 125 -32 0 c-38 0 -38 2 -17 -50 15 -38 15 -42 -11 -112 -15 -40 -31 -77
-35 -81 -4 -4 -12 12 -19 35 -7 24 -27 80 -43 126 -29 80 -31 82 -63 82 l-33
0 58 -167z"/>
<path d="M1985 476 c-108 -48 -130 -213 -41 -296 38 -35 146 -41 194 -10 68
42 93 167 49 244 -38 68 -128 95 -202 62z m114 -42 c84 -71 52 -254 -45 -254
-131 0 -133 276 -2 280 9 0 30 -12 47 -26z"/>
<path d="M2332 474 c-111 -57 -117 -255 -9 -310 47 -25 149 -15 183 16 40 39
57 80 57 141 0 63 -21 109 -65 142 -37 28 -122 33 -166 11z m126 -37 c58 -47
53 -214 -6 -246 -73 -39 -142 24 -142 129 0 86 46 147 104 135 16 -3 36 -11
44 -18z"/>
</g>
</svg>
