<?xml version="1.0" encoding="utf-8"?>
<!-- Generator: Adobe Illustrator 19.2.1, SVG Export Plug-In . SVG Version: 6.00 Build 0)  -->
<svg version="1.1" id="layer" xmlns="http://www.w3.org/2000/svg" xmlns:xlink="http://www.w3.org/1999/xlink" x="0px" y="0px"
	 viewBox="0 0 652 652" style="enable-background:new 0 0 652 652;" xml:space="preserve">
<style type="text/css">
	.st0{fill:#4DA4E0;}
	.st1{fill:#93BA2F;}
	.st2{fill:#EA991B;}
	.st3{fill:#D83128;}
	.st4{fill:#560000;}
</style>
<path class="st0" d="M626.8,261.4c0-0.7-0.6-1.3-1.3-1.3v0c-9.7-0.3-16,3.7-20,8.1c-5.4-4.7-13.8-8.5-26.6-8.6v0h-0.1h-0.1v0
	c-19,0.1-28.2,8.4-32.7,15.7c-4.6,7.7-4.8,15.9-4.8,17.5v0.9c0,1.7,0.2,9.8,4.9,17.5c2,3.3,4.9,6.8,9.3,9.6
	c-7.1,4.1-13.5,11.4-13.5,24.5v6.9v0c0,0.7,0.5,1.3,1.3,1.3v0v0h54.3c6.5,0,9.8,4.3,10.8,8.4c1.2,5.1-0.8,12.1-9.5,16.7c0,0,0,0,0,0
	c-0.5,0.2-0.9,0.7-0.9,1.2c0,0.3,0.1,0.5,0.2,0.7h0l7.1,12.9c0,0,0,0,0,0c0.2,0.4,0.7,0.8,1.2,0.8c0.2,0,0.4,0,0.6-0.1v0
	c16.4-8.4,20-24.2,17.4-35.8c-2.9-12.7-13.6-21.2-26.8-21.2l-37.5,0.9c2.1-11.3,15.3-11.1,16.9-11.1l0,0c0.6,0,1.2,0.1,1.9,0.1h0.1
	h0.1c19-0.1,28.2-8.4,32.7-15.7c4.6-7.7,4.8-15.9,4.8-17.5v-0.9c0-1.4-0.2-7.4-3-13.9c2.5-1.7,6.4-3.3,12-3c0,0,0,0,0,0
	c0.7,0,1.3-0.6,1.3-1.2V261.4L626.8,261.4L626.8,261.4z M597.5,293.9c0,3.6-2.6,16.7-18.7,16.7c-16.1-0.1-18.7-13.1-18.7-16.7v-1.2
	c0-3.6,2.6-16.7,18.7-16.8c16.1,0.1,18.7,13.1,18.7,16.8V293.9z"/>
<path class="st1" d="M528.8,294.5c0-1.7-0.2-10.3-4.3-18.4c-4-7.7-12.3-16.5-29.4-16.5v0c0,0,0,0-0.1,0c0,0,0,0-0.1,0v0
	c-11.3,0-18.7,4.6-23.6,9.4v-6.3h0c0,0,0-0.1,0-0.1c0-0.7-0.6-1.3-1.3-1.3c0,0,0,0,0,0h-15.1v0c-0.7,0-1.3,0.6-1.3,1.3
	c0,0,0,0,0,0.1h0v89.9h0c0.1,0.7,0.6,1.2,1.3,1.2c0,0,0.1,0,0.1,0v0h16.1v0c0.7,0,1.3-0.5,1.3-1.2h0v-0.1v0v0v-59.7
	c0.4-4.8,3.7-16.7,18.7-16.7c16.1,0.1,18.7,13.8,18.7,17.7v58.6h0c0,0,0,0.1,0,0.1c0,0.7,0.6,1.3,1.3,1.3h0h16.3h0h0v0
	c0.7,0,1.3-0.6,1.3-1.3v-0.1v0V294.5z"/>
<path class="st2" d="M438.8,293.6c0-7.4-3.7-24.6-20.4-31.5c-17-7-39.7,1.4-45.3,3.9v0c-0.5,0.1-1,0.6-1,1.2c0,0.2,0.1,0.4,0.2,0.6
	c0,0,0,0,0,0l4.6,13c0,0,0,0,0,0c0.2,0.5,0.6,0.8,1.2,0.8c0.2,0,0.3,0,0.5-0.1l0,0c6.2-3.2,23.1-8.9,33.4-4.2
	c10,4.6,9.1,15.2,9.2,16.4v0.4v2.2c-4.9-3.5-11.6-6.9-21.2-7h-0.1h-0.1c-17.1,0.1-25.4,8.3-29.4,15.6c-4.2,7.7-4.4,15.7-4.4,17.4v0
	c0,1.6,0.2,9.7,4.4,17.3c4,7.3,12.3,15.5,29.4,15.6h0.1h0.1c10,0,16.9-3.6,21.8-7.4v4.4c0,0,0,0,0,0c0,0,0,0,0,0v0
	c0,0.7,0.6,1.3,1.3,1.3c0,0,0,0,0.1,0v0h14.2v0c0,0,0,0,0,0c0.7,0,1.3-0.6,1.3-1.3v-48.8h0v-9.5C438.8,294,438.8,293.8,438.8,293.6
	 M421.3,323c0,3.7-2.6,16.6-18.2,16.6c-15.7-0.1-18.2-12.9-18.2-16.6v-1.5c0-3.7,2.6-16.6,18.2-16.6c15.7,0.1,18.2,12.9,18.2,16.6
	V323z"/>
<path class="st3" d="M352,276.2c-4-7.7-12.3-16.5-29.4-16.5v0h-0.1h-0.1v0c-11.3,0-18.7,4.7-23.7,9.5v-6.5h0c0,0,0,0,0,0
	c0-0.7-0.6-1.3-1.3-1.3c0,0-0.1,0-0.1,0c0,0,0,0,0,0h-14.9c0,0,0,0,0,0c0,0-0.1,0-0.1,0c-0.7,0-1.3,0.6-1.3,1.3c0,0,0,0,0,0h0v128.2
	l0,0c0,0.7,0.6,1.3,1.3,1.3h0.1h16.1h0.1h0.1h0.1v0c0.6-0.1,1.1-0.6,1.1-1.2c0,0,0,0,0,0v-0.1c0,0,0,0,0,0s0,0,0,0v-43.6
	c4.9,4.3,12,8.3,22.5,8.3h0.1h0.1c17.1-0.1,25.4-8.8,29.4-16.5c4.2-8.1,4.4-16.6,4.4-18.4v-26.1C356.4,292.8,356.2,284.3,352,276.2
	 M337.4,321.4c0,3.9-2.6,17.6-18.7,17.7c-16.1-0.1-18.7-13.8-18.7-17.7v-27.7c0-3.9,2.6-17.6,18.7-17.7
	c16.1,0.1,18.7,13.7,18.7,17.7V321.4z"/>
<path class="st4" d="M103.8,294.5c0-1.7,0.2-10.3,4.8-18.4c4.4-7.7,13.7-16.5,32.7-16.5v0h0.1h0.1v0c19,0.1,28.2,8.8,32.7,16.5
	c4.7,8.1,4.8,16.6,4.8,18.4v26.1c0,1.7-0.2,10.3-4.8,18.4c-4.4,7.7-13.7,16.5-32.7,16.5h-0.1h-0.1c-19-0.1-28.2-8.8-32.7-16.5
	c-4.6-8.1-4.8-16.6-4.8-18.4V294.5z M122.7,321.4c0,3.9,2.6,17.6,18.7,17.7c16.1-0.1,18.7-13.8,18.7-17.7v-27.7
	c0-3.9-2.6-17.6-18.7-17.7c-16.1,0.1-18.7,13.8-18.7,17.7V321.4z M98.2,336.7c0-0.5-0.3-1-0.7-1.2v0l0,0c0,0,0,0-0.1,0l-14.3-7.1
	c0,0,0,0,0,0c-0.2-0.1-0.4-0.2-0.6-0.2c-0.5,0-0.9,0.3-1.1,0.7h0c0,0,0,0.1-0.1,0.1v0c-2.3,4.8-7.1,9.9-16.9,10
	c-16.1-0.1-18.7-13.8-18.7-17.7v-27.7c0-3.9,2.6-17.6,18.7-17.7c9.9,0,14.7,5.3,17,10.2c0.2,0.5,0.7,0.8,1.2,0.8
	c0.2,0,0.4-0.1,0.6-0.2c0,0,0,0,0,0l14.2-7.4v0c0.4-0.2,0.7-0.6,0.7-1.1c0-0.2,0-0.4-0.1-0.5c-0.3-0.5-0.5-1.1-0.8-1.6
	c-4.4-7.7-13.7-16.5-32.7-16.5v0h-0.1h-0.1v0c-19,0.1-28.2,8.8-32.7,16.5c-4.7,8.1-4.8,16.6-4.8,18.4v26.1c0,1.7,0.2,10.3,4.8,18.4
	c4.4,7.7,13.7,16.5,32.7,16.5h0.1h0.1c19-0.1,28.2-8.8,32.7-16.5c0.3-0.6,0.6-1.1,0.9-1.7l0,0C98.1,337.1,98.2,337,98.2,336.7
	 M266.8,352.4v-89.7v0c0-0.7-0.6-1.3-1.3-1.3c0,0,0,0,0,0h-16.3v0v0c-0.7,0-1.3,0.6-1.3,1.3c0,0,0,0.1,0,0.1v31.7h0v26.9
	c0,3.9-2.6,17.6-18.7,17.7c-16.1-0.1-18.7-13.7-18.7-17.7v-58.6h0c0-0.7-0.6-1.3-1.3-1.3c0,0,0,0,0,0v0l-16.2,0c0,0,0,0,0,0
	c-0.7,0-1.3,0.6-1.3,1.3h0v57.9c0,1.7,0.2,10.3,4.4,18.4c4,7.7,12.3,16.5,29.4,16.5h0.1h0.1c11.3,0,18.7-4.6,23.7-9.5v6.4h0
	c0,0.7,0.6,1.3,1.3,1.3c0,0,0,0,0.1,0v0h15C266.2,353.8,266.8,353.2,266.8,352.4C266.8,352.4,266.8,352.4,266.8,352.4"/>
</svg>
