<?xml version="1.0" standalone="no"?>
<!DOCTYPE svg PUBLIC "-//W3C//DTD SVG 20010904//EN"
 "http://www.w3.org/TR/2001/REC-SVG-20010904/DTD/svg10.dtd">
<svg version="1.0" xmlns="http://www.w3.org/2000/svg"
 width="1200.000000pt" height="628.000000pt" viewBox="0 0 1200.000000 628.000000"
 preserveAspectRatio="xMidYMid meet">

<g transform="translate(0.000000,628.000000) scale(0.100000,-0.100000)"
fill="#000000" stroke="none">
<path d="M4206 6259 l-26 -21 2 -1066 3 -1067 44 -3 c28 -2 47 1 52 10 5 7 9
473 9 1036 l0 1022 493 0 492 -1 348 -362 347 -362 0 -1206 c0 -1156 1 -1207
18 -1222 24 -22 55 -21 75 1 15 16 17 45 17 194 l0 175 101 106 c253 267 527
445 851 551 208 69 319 88 556 93 202 6 203 6 222 31 20 24 20 44 20 1033 0
717 -3 1015 -11 1032 -6 14 -22 30 -36 36 -30 14 -1060 16 -1095 2 -13 -5
-171 -162 -352 -350 -181 -188 -332 -340 -336 -339 -4 2 -152 154 -330 338
-177 184 -335 340 -349 347 -19 9 -165 12 -557 13 -523 0 -532 0 -558 -21z"/>
<path d="M5976 2790 c-75 -66 -176 -316 -176 -434 0 -161 136 -268 288 -227
51 14 116 70 143 122 43 84 13 244 -78 421 -43 84 -98 148 -128 148 -8 0 -30
-14 -49 -30z"/>
<path d="M8870 1414 c-177 -18 -302 -91 -361 -209 -26 -54 -31 -76 -32 -139 0
-65 4 -84 32 -140 57 -116 137 -164 376 -225 188 -48 288 -93 340 -153 83 -98
77 -227 -17 -314 -141 -134 -429 -120 -574 27 -26 27 -56 49 -65 49 -32 0 -79
-49 -79 -83 0 -66 160 -177 298 -206 74 -15 225 -13 300 4 130 31 239 111 289
214 25 50 28 67 28 161 0 92 -3 111 -25 154 -33 65 -116 139 -203 180 -40 19
-133 51 -207 71 -74 21 -157 46 -183 56 -126 50 -183 124 -175 224 10 124 127
205 297 205 149 0 271 -61 322 -161 25 -51 56 -52 98 -4 35 41 35 39 20 68
-44 84 -147 163 -253 196 -64 19 -167 31 -226 25z"/>
<path d="M9908 1409 c-228 -30 -371 -181 -355 -375 9 -112 85 -213 201 -268
28 -13 122 -43 209 -65 190 -50 251 -76 313 -133 85 -78 105 -167 60 -264 -43
-92 -145 -151 -282 -161 -140 -11 -274 38 -360 133 -18 19 -40 34 -51 34 -24
0 -83 -60 -83 -83 0 -30 88 -113 158 -150 106 -56 177 -70 317 -64 220 9 356
87 427 243 18 39 22 67 23 144 0 84 -3 101 -28 152 -56 115 -166 182 -415 254
-228 66 -301 104 -339 177 -23 46 -21 124 5 175 48 91 155 137 307 130 79 -3
101 -8 158 -36 65 -32 107 -72 139 -131 22 -40 46 -39 87 3 42 44 38 69 -25
136 -114 122 -279 174 -466 149z"/>
<path d="M11153 1384 c-195 -42 -377 -186 -467 -368 -55 -110 -70 -183 -70
-321 1 -102 5 -132 27 -200 59 -180 184 -327 344 -407 125 -63 216 -82 357
-75 189 9 313 64 452 203 215 214 264 523 127 804 -114 234 -357 381 -623 379
-47 -1 -113 -7 -147 -15z m320 -134 c143 -45 280 -161 343 -293 69 -144 80
-285 33 -427 -89 -273 -381 -446 -651 -386 -248 55 -422 241 -459 490 -22 148
35 330 140 448 152 170 381 234 594 168z"/>
<path d="M16 1362 c-15 -17 -16 -74 -14 -658 l3 -639 55 0 55 0 5 530 5 529
221 -305 c122 -167 229 -310 237 -317 9 -8 30 -12 48 -10 30 3 49 25 258 314
l226 311 3 -515 c1 -371 5 -519 14 -529 7 -9 27 -13 57 -11 l46 3 3 645 c2
597 1 646 -15 658 -9 6 -29 12 -44 12 -35 0 -36 -1 -324 -400 -125 -173 -229
-316 -230 -318 -1 -1 -120 160 -264 358 -253 348 -263 360 -295 360 -19 0 -40
-8 -50 -18z"/>
<path d="M5062 1368 c-17 -17 -18 -1288 0 -1306 7 -7 31 -12 55 -12 32 0 45 5
53 19 6 12 10 120 10 280 l0 259 278 4 278 3 76 38 c88 43 146 102 187 187 23
48 26 68 26 155 0 91 -3 106 -31 165 -39 83 -101 145 -184 184 l-65 31 -335 3
c-258 2 -338 0 -348 -10z m661 -122 c65 -19 122 -68 151 -129 36 -74 41 -123
21 -192 -20 -72 -97 -154 -161 -173 -28 -8 -126 -12 -298 -12 l-256 0 0 260 0
260 248 0 c184 0 261 -4 295 -14z"/>
<path d="M6185 1368 c-3 -7 -4 -305 -3 -663 l3 -650 43 -3 c74 -5 72 -13 72
289 l0 269 241 -2 241 -3 130 -272 131 -273 58 0 c48 0 59 3 64 19 4 13 -37
109 -124 290 l-129 270 52 29 c65 37 121 99 155 171 23 49 26 68 26 161 0 97
-2 110 -30 164 -38 76 -105 143 -181 181 l-59 30 -343 3 c-275 3 -343 1 -347
-10z m661 -123 c63 -19 113 -60 147 -123 59 -109 42 -221 -46 -307 -32 -31
-68 -55 -93 -63 -28 -8 -124 -12 -298 -12 l-256 0 0 260 0 260 248 0 c190 0
260 -3 298 -15z"/>
<path d="M2018 1353 c-12 -14 -424 -866 -584 -1207 -32 -69 -21 -86 52 -86
l55 0 19 44 c40 94 186 216 355 297 128 62 240 89 367 89 l97 0 68 -142 c37
-79 84 -174 103 -213 l35 -70 57 -3 c49 -3 57 0 63 17 4 15 -78 197 -286 633
-161 337 -301 623 -312 636 -24 26 -68 29 -89 5z m184 -493 l118 -245 -98 -6
c-153 -10 -339 -72 -458 -152 -21 -15 -39 -25 -41 -23 -2 2 49 113 113 247 64
134 141 296 171 359 52 108 56 114 66 90 7 -14 65 -135 129 -270z"/>
<path d="M3746 1355 c-9 -25 -7 -1278 3 -1293 5 -9 25 -12 57 -10 l49 3 3 278
2 277 405 0 405 0 0 -268 c0 -195 3 -271 12 -280 7 -7 31 -12 55 -12 32 0 45
5 53 19 15 30 14 1273 -2 1289 -18 18 -105 15 -112 -4 -3 -9 -6 -150 -6 -315
l0 -299 -405 0 -405 0 -2 313 -3 312 -51 3 c-40 2 -53 -1 -58 -13z"/>
<path d="M7405 1358 c-3 -7 -4 -303 -3 -658 l3 -645 440 0 440 0 0 55 0 55
-382 3 -383 2 0 220 0 220 329 0 c181 0 336 3 345 6 19 7 22 94 4 112 -9 9
-99 12 -345 12 l-333 0 0 255 0 255 378 2 377 3 3 58 3 57 -436 0 c-339 0
-437 -3 -440 -12z"/>
<path d="M2521 1346 c-7 -8 -11 -34 -9 -58 l3 -43 228 -3 227 -2 0 -584 c0
-493 2 -585 14 -595 8 -7 34 -11 58 -9 l43 3 5 590 5 590 225 5 225 5 0 55 0
55 -506 3 c-430 2 -508 0 -518 -12z"/>
</g>
</svg>
