<?xml version="1.0" encoding="utf-8"?>
<!-- Generator: Adobe Illustrator 19.2.1, SVG Export Plug-In . SVG Version: 6.00 Build 0)  -->
<svg version="1.1" id="layer" xmlns="http://www.w3.org/2000/svg" xmlns:xlink="http://www.w3.org/1999/xlink" x="0px" y="0px"
	 viewBox="0 0 652 652" style="enable-background:new 0 0 652 652;" xml:space="preserve">
<style type="text/css">
	.st0{fill:#57B04B;}
</style>
<g>
	<path class="st0" d="M26.2,272.2h42.4c0,0,38.5,58.1,39.6,59.7c1.1,1.6,1.3,0,1.3,0c-1.8-9-3.7-13-3.7-27.4v-32.3H148v107.7h-42.2
		c0,0-37.7-55-38.8-56.6c-1.1-1.5-1.3,0-1.3,0c1.4,7.4,2.7,8.7,2.7,21.6v35H26.2V272.2z"/>
	<path class="st0" d="M214.5,340.9l5.7-21.9c1.2-4.4,2.1-10.8,2.1-10.8c0.2-1,1.5-1,1.8,0c0.3,1.5,1,6.1,2.2,10.6l5.9,22
		C232.2,340.9,214.5,340.9,214.5,340.9z M206.6,366.5h33.4l4,13.4h46.7l-43.3-107.7h-48.8l-42.2,107.7H203L206.6,366.5z"/>
	<path class="st0" d="M401.8,272.2l-47,107.7h-37.4l-47-107.7h46.1l16.1,49c1.8,5.3,3.1,16.9,3.1,16.9c0.3,0.9,1.4,0.8,1.6,0
		c0,0,1.3-11.6,3.1-16.9l15.5-49C355.8,272.2,401.8,272.2,401.8,272.2z"/>
	<path class="st0" d="M411,272.2h81.7v29.4h-37.2v10.3h34v28h-34v10.6H494v29.4h-83L411,272.2L411,272.2z"/>
	<path class="st0" d="M555.1,301.3h3.4c7.6,0,14.2,1,14.2,9.3c0,8-7.3,9-14.5,9h-3.1V301.3z M512,379.5h43.2V345c0,0,0.3-1.2,1.1,0
		l19,34.6h50.9l-26.4-35c-2.4-3.1-6.5-5.8-7.4-6.4c-0.9-0.6,0-0.9,0-0.9c16.4-4.9,23.5-11.7,23.5-28c0-27.1-23.2-37.4-50.6-37.4H512
		V379.5z"/>
</g>
</svg>
